<svg width="24" height="24" viewBox="0 0 24 24" fill="none" xmlns="http://www.w3.org/2000/svg">
  <!-- Bilancia (outline soft per dark mode) -->
  <rect x="3" y="4" width="18" height="16" rx="4" stroke="#E6E6E6" stroke-width="1.5"></rect>
  
  <!-- Display -->
  <rect x="7" y="6" width="10" height="4" rx="1.5" stroke="#A0A0A0" stroke-width="1.2"></rect>
  
  <!-- Grafico (in alto, accent verde) -->
  <path d="M7 13L10 10L13 12L17 8" stroke="#00E676" stroke-width="1.8" stroke-linecap="round" stroke-linejoin="round"></path>
  <circle cx="17" cy="8" r="1.2" fill="#00E676"></circle>
  
  <!-- Cuore (in basso, separato) -->
  <path d="M12 19C12 19 9.5 17.5 9.5 15.8C9.5 14.9 10.2 14.2 11.1 14.2C11.8 14.2 12.3 14.6 12 15.2C12.7 14.6 13.2 14.2 13.9 14.2C14.8 14.2 15.5 14.9 15.5 15.8C15.5 17.5 12 19 12 19Z" fill="#00E676"></path>
</svg>